# xmcd CD database file
#
# Track frame offsets:
#	150
#	23063
#	43956
#	63006
#	79320
#	101637
#	122865
#	141188
#	161526
#
# Disc length: 2448 seconds
#
# Revision: 0
# Processed by: cddbd v1.5.2PL0 Copyright (c) Steve Scherf et al.
# Submitted via: CDex 1.51
#
DISCID=76098e09
DTITLE=Grupo Fuego - Grupo Fuego
DYEAR=2004
DGENRE=Merengue
TTITLE0=Fuego
TTITLE1=Como Te Extrano
TTITLE2=Esos Ojitos
TTITLE3=Muévelo (Reggaeton)
TTITLE4=Más Allá
TTITLE5=Como Te Extrano (Balada)
TTITLE6=Sueno
TTITLE7=Más Allá (Bachata)
TTITLE8=Ya Llegaron Las Mujeres
EXTD=YEAR: 2004
EXTT0=
EXTT1=
EXTT2=
EXTT3=
EXTT4=
EXTT5=
EXTT6=
EXTT7=
EXTT8=
PLAYORDER=
